<svg width="70" height="71" viewBox="0 0 70 71" fill="none" xmlns="http://www.w3.org/2000/svg">
<rect y="0.375" width="70" height="70" rx="26" fill="url(#paint0_linear)"/>
<g clip-path="url(#clip0)">
<path d="M44.263 24.2766C39.8481 23.9609 35.4202 24.6701 31.3176 26.35L28.0309 25.1543C27.8949 23.8688 27.8709 22.5737 27.9591 21.2839C27.9652 21.1667 27.9475 21.0495 27.9073 20.9394C27.8671 20.8294 27.8051 20.7288 27.7252 20.6437C27.6453 20.5587 27.5491 20.491 27.4425 20.4448C27.3358 20.3986 27.221 20.3748 27.105 20.375C26.9871 20.375 24.1479 20.4182 20.5213 24.0848C16.476 28.1695 16.0199 35.9916 16.0011 36.3165C15.9897 36.5416 16.0657 36.7623 16.213 36.9316C17.7336 38.4757 19.7055 39.4832 21.8366 39.805C24.533 40.1554 27.2717 39.702 29.717 38.5005L27.3595 43.0552C27.3231 43.125 27.2686 43.1835 27.2018 43.2243C27.1349 43.2651 27.0583 43.2867 26.9803 43.2867H17.7094C17.2563 43.2867 16.8218 43.4688 16.5015 43.7928C16.1811 44.1169 16.0011 44.5564 16.0011 45.0146C16.0011 45.4729 16.1811 45.9124 16.5015 46.2364C16.8218 46.5605 17.2563 46.7425 17.7094 46.7425H37.7818C38.2348 46.7425 38.6694 46.5605 38.9897 46.2364C39.3101 45.9124 39.4901 45.4729 39.4901 45.0146C39.4901 44.5564 39.3101 44.1169 38.9897 43.7928C38.6694 43.4688 38.2348 43.2867 37.7818 43.2867H34.6214C34.5491 43.2866 34.478 43.2679 34.4148 43.2325C34.3515 43.197 34.2981 43.146 34.2596 43.0841C34.221 43.0222 34.1986 42.9514 34.1944 42.8784C34.1902 42.8054 34.2043 42.7325 34.2354 42.6664L37.8997 34.9739C37.9689 34.8187 38.0676 34.6788 38.1903 34.5622C38.3129 34.4456 38.4571 34.3546 38.6145 34.2943C38.772 34.2341 38.9396 34.2058 39.1079 34.211C39.2761 34.2163 39.4417 34.2551 39.5951 34.3251C39.7486 34.3951 39.8869 34.495 40.0022 34.619C40.1174 34.7431 40.2074 34.8889 40.267 35.0482C40.3266 35.2074 40.3545 35.377 40.3493 35.5471C40.3441 35.7173 40.3058 35.8848 40.2366 36.04L38.8187 39.2176C38.7898 39.2836 38.7775 39.3559 38.7829 39.4279C38.7883 39.5 38.8111 39.5696 38.8495 39.6305C38.8882 39.691 38.9414 39.7408 39.0041 39.7752C39.0667 39.8096 39.1369 39.8276 39.2082 39.8275H41.95C46.7503 39.8275 52.3022 42.0841 52.3022 47.603C52.3009 48.8628 51.8055 50.0706 50.9248 50.9614C50.0441 51.8522 48.8499 52.3533 47.6044 52.3547C47.0637 52.3543 46.5291 52.2387 46.0355 52.0155C45.5419 51.7922 45.1004 51.4662 44.7396 51.0588C44.6211 50.9331 44.5287 50.7847 44.4679 50.6222C44.4072 50.4598 44.3794 50.2866 44.3861 50.1131C44.3928 49.9396 44.434 49.7692 44.5071 49.612C44.5802 49.4549 44.6838 49.3142 44.8117 49.1983C44.9397 49.0825 45.0893 48.9938 45.2518 48.9377C45.4143 48.8815 45.5862 48.8589 45.7575 48.8712C45.9288 48.8836 46.0959 48.9307 46.2488 49.0096C46.4017 49.0886 46.5374 49.1978 46.6478 49.3309C46.7684 49.4666 46.9159 49.5753 47.0807 49.6497C47.2455 49.7241 47.4239 49.7626 47.6044 49.7628C48.1705 49.7619 48.7131 49.5341 49.1134 49.1292C49.5136 48.7244 49.7389 48.1755 49.7398 47.603C49.7227 46.9418 49.493 46.3042 49.0855 45.787C46.6085 42.4487 41.6254 45.5468 41.6254 49.3274C41.6254 53.108 44.1879 55.375 48.4586 55.375C54.0652 55.375 57 47.5529 57 39.8241C57 30.5557 52.4782 25.0334 44.263 24.2766Z" fill="#0F1046"/>
<path d="M24.5 35.375C26.433 35.375 28 33.808 28 31.875C28 29.942 26.433 28.375 24.5 28.375C22.567 28.375 21 29.942 21 31.875C21 33.808 22.567 35.375 24.5 35.375Z" fill="white"/>
<path d="M24.5 33.375C25.3284 33.375 26 32.7034 26 31.875C26 31.0466 25.3284 30.375 24.5 30.375C23.6716 30.375 23 31.0466 23 31.875C23 32.7034 23.6716 33.375 24.5 33.375Z" fill="#2A2B8D"/>
</g>
<defs>
<linearGradient id="paint0_linear" x1="64.9275" y1="90.6648" x2="7.10145" y2="-23.9728" gradientUnits="userSpaceOnUse">
<stop stop-color="#2A2B8D"/>
<stop offset="0.0331492" stop-color="#2B2F8F"/>
<stop offset="1" stop-color="#559BD1"/>
</linearGradient>
<clipPath id="clip0">
<rect x="16" y="18.375" width="40" height="40" fill="white"/>
</clipPath>
</defs>
</svg>
